<svg width="90" height="17" viewBox="0 0 90 17" fill="none" xmlns="http://www.w3.org/2000/svg">
<g clip-path="url(#clip0_3799_21141)">
<path d="M78.7018 0.21582C78.381 0.21582 78.1211 0.477699 78.1211 0.800617V4.90211H88.8724L83.9763 0.216199L78.7018 0.21582Z" fill="#636262"/>
<path d="M89.2642 6.14302C89.2642 5.81934 89.0062 5.55859 88.6835 5.55859H84.6147V16.3932L89.2623 11.4571L89.2642 6.14302Z" fill="#636262"/>
<path d="M83.3812 16.7855C83.7012 16.7855 83.9611 16.5233 83.9611 16.1996V12.0996H73.2095L78.1063 16.7848L83.3812 16.7855Z" fill="#636262"/>
<path d="M72.8179 10.859C72.8179 11.1823 73.0777 11.4457 73.3993 11.4457H77.4673V0.610352L72.8186 5.54495L72.8179 10.859Z" fill="#636262"/>
<path d="M23.5434 2.19366V7.19722H16.6259V2.19366L14.1064 2.19141V14.8075H16.6259V9.38757H23.5434V14.8075H26.067V2.19366H23.5434Z" fill="#636262"/>
<path d="M57.0586 2.19336V14.8042H68.112L66.712 12.5841H59.5852V9.38727H66.4862V7.24891H59.5852V4.36148H66.7001L68.0716 2.19336H57.0586Z" fill="#636262"/>
<path d="M4.74086 2.19043C2.12007 2.19043 0.796387 3.79598 0.796387 6.13216V10.8414C0.796387 13.545 2.5022 14.8073 4.72777 14.8073L12.6324 14.8065L11.167 12.5005H5.21611C3.95189 12.5005 3.40111 12.04 3.40111 10.6142V6.34166C3.40111 4.96332 3.86477 4.42562 5.24976 4.42562H11.2291L12.6361 2.19043H4.74086Z" fill="#636262"/>
<path d="M46.0033 2.18758C44.4897 2.18758 42.9383 3.10434 42.9383 5.46238V6.06827C42.9383 8.52653 44.431 9.46439 45.9245 9.4708H51.1664C51.7108 9.4708 52.1532 9.56198 52.1532 10.4893L52.1524 11.5605C52.1386 12.3936 51.7262 12.5843 51.1477 12.5843H44.2515L42.8389 14.8044H51.31C53.3527 14.8044 54.7396 13.7803 54.7396 11.4147V10.5454C54.7396 8.25825 53.451 7.17757 51.4532 7.17757H46.4479C45.893 7.17757 45.5064 7.02497 45.5064 6.19676V5.32446C45.5064 4.61909 45.7715 4.36173 46.418 4.36173L52.9855 4.3591L54.3582 2.18457L46.0033 2.18758Z" fill="#636262"/>
<path d="M33.3871 2.19336L27.4512 14.8064H30.2567L31.4128 12.2016H37.8633L39.0157 14.8064H41.8336L35.8838 2.19336H33.3871ZM34.6319 4.81213L36.9128 10.0546H32.3656L34.6319 4.81213Z" fill="#636262"/>
</g>
<defs>
<clipPath id="clip0_3799_21141">
<rect width="89.3583" height="16.7352" fill="white" transform="translate(0.341797 0.132812)"/>
</clipPath>
</defs>
</svg>
