<svg width="52" height="17" viewBox="0 0 52 17" fill="none" xmlns="http://www.w3.org/2000/svg">
<path d="M49.7491 10.3601L51.1639 11.3033C50.7047 11.9797 49.6064 13.1401 47.7075 13.1401C45.3494 13.1401 43.5933 11.3157 43.5933 8.99487C43.5933 6.52509 45.368 4.84961 47.5089 4.84961C49.6622 4.84961 50.7172 6.56232 51.0585 7.48694L51.2446 7.95855L45.6969 10.2546C46.1189 11.0861 46.7767 11.5081 47.7075 11.5081C48.6383 11.5081 49.2837 11.0489 49.7491 10.3601ZM45.3991 8.86456L49.1037 7.3256C48.8989 6.81054 48.2908 6.44442 47.5648 6.44442C46.6402 6.44442 45.3556 7.26354 45.3991 8.86456Z" fill="#636262"/>
<path d="M40.917 0.624023H42.7042V12.7619H40.917V0.624023Z" fill="#636262"/>
<path d="M38.0988 5.17166H39.8239V12.5438C39.8239 15.6031 38.0181 16.8628 35.8834 16.8628C33.8728 16.8628 32.6627 15.51 32.2097 14.4116L33.7921 13.7538C34.0776 14.4302 34.7664 15.2307 35.8834 15.2307C37.2548 15.2307 38.0988 14.3806 38.0988 12.792V12.1963H38.0367C37.6271 12.6927 36.8452 13.1395 35.8524 13.1395C33.7797 13.1395 31.8809 11.3337 31.8809 9.00665C31.8809 6.66718 33.7797 4.84277 35.8524 4.84277C36.839 4.84277 37.6271 5.28336 38.0367 5.76739H38.0988V5.17166ZM38.2229 9.00665C38.2229 7.54216 37.2486 6.47481 36.0075 6.47481C34.754 6.47481 33.6991 7.54216 33.6991 9.00665C33.6991 10.4525 34.754 11.5013 36.0075 11.5013C37.2486 11.5075 38.2229 10.4525 38.2229 9.00665Z" fill="#636262"/>
<path d="M22.0692 8.97666C22.0692 11.3658 20.2075 13.1219 17.9238 13.1219C15.6401 13.1219 13.7783 11.3596 13.7783 8.97666C13.7783 6.57514 15.6401 4.8252 17.9238 4.8252C20.2075 4.8252 22.0692 6.57514 22.0692 8.97666ZM20.2572 8.97666C20.2572 7.48735 19.1773 6.46344 17.9238 6.46344C16.6702 6.46344 15.5904 7.48735 15.5904 8.97666C15.5904 10.4536 16.6702 11.4899 17.9238 11.4899C19.1773 11.4899 20.2572 10.4536 20.2572 8.97666Z" fill="#636262"/>
<path d="M31.1244 8.99487C31.1244 11.384 29.2627 13.1401 26.979 13.1401C24.6952 13.1401 22.8335 11.384 22.8335 8.99487C22.8335 6.59335 24.6952 4.84961 26.979 4.84961C29.2627 4.84961 31.1244 6.58714 31.1244 8.99487ZM29.3061 8.99487C29.3061 7.50555 28.2263 6.48165 26.9727 6.48165C25.7192 6.48165 24.6394 7.50555 24.6394 8.99487C24.6394 10.4718 25.7192 11.5081 26.9727 11.5081C28.2325 11.5081 29.3061 10.4656 29.3061 8.99487Z" fill="#636262"/>
<path d="M6.96625 11.3219C4.36603 11.3219 2.33053 9.22441 2.33053 6.62431C2.33053 4.02422 4.36603 1.92677 6.96625 1.92677C8.36875 1.92677 9.39271 2.47905 10.1498 3.18648L11.3972 1.93918C10.3422 0.927683 8.93348 0.158203 6.96625 0.158203C3.40413 0.158203 0.406738 3.06237 0.406738 6.62431C0.406738 10.1863 3.40413 13.0904 6.96625 13.0904C8.89004 13.0904 10.3422 12.4575 11.4779 11.2784C12.6445 10.1118 13.0045 8.47355 13.0045 7.14557C13.0045 6.72981 12.9548 6.30163 12.899 5.98515H6.96625V7.71027H11.1924C11.0683 8.79003 10.727 9.52848 10.2243 10.0311C9.61612 10.6455 8.65422 11.3219 6.96625 11.3219Z" fill="#636262"/>
</svg>
