<svg width="79" height="17" viewBox="0 0 79 17" fill="none" xmlns="http://www.w3.org/2000/svg">
<g clip-path="url(#clip0_3799_21120)">
<path d="M27.6927 9.77161L27.2252 11.0949H27.1862C27.1083 10.7965 26.9654 10.3424 26.7316 9.79756L24.2248 3.50564H21.77V13.5338H23.3936V7.34566C23.3936 6.95647 23.3936 6.51538 23.3806 5.97052C23.3676 5.69808 23.3416 5.49051 23.3286 5.33484H23.3676C23.4455 5.72403 23.5364 6.00944 23.6014 6.19106L26.6147 13.5078H27.7577L30.745 6.12619C30.81 5.95754 30.8749 5.62024 30.9398 5.33484H30.9788C30.9398 6.0743 30.9139 6.73592 30.9009 7.13809V13.4949H32.6283V3.4797H30.2644L27.6927 9.77161ZM34.2649 6.30781H35.9534V13.4949H34.2649V6.30781ZM35.1221 3.27213C34.8364 3.27213 34.6026 3.37591 34.4077 3.55753C34.2129 3.73916 34.109 3.97267 34.109 4.25808C34.109 4.53051 34.2129 4.76403 34.4077 4.94565C34.6026 5.12727 34.8364 5.21808 35.1221 5.21808C35.4079 5.21808 35.6546 5.1143 35.8365 4.94565C36.0313 4.76403 36.1352 4.53051 36.1352 4.25808C36.1352 3.98564 36.0313 3.75213 35.8365 3.55753C35.6676 3.37591 35.4208 3.27213 35.1221 3.27213ZM41.941 6.24295C41.6293 6.17808 41.3046 6.13917 40.9929 6.13917C40.2266 6.13917 39.5252 6.30781 38.9407 6.64511C38.3562 6.98241 37.8886 7.44944 37.5899 8.03323C37.2782 8.62999 37.1223 9.31756 37.1223 10.1089C37.1223 10.7965 37.2782 11.4062 37.5769 11.9641C37.8757 12.5089 38.2913 12.95 38.8498 13.2484C39.3823 13.5468 40.0058 13.7024 40.7071 13.7024C41.5124 13.7024 42.2008 13.5338 42.7463 13.2224L42.7593 13.2095V11.6527L42.6944 11.7046C42.4476 11.8862 42.1618 12.0419 41.8761 12.1327C41.5774 12.2365 41.3046 12.2884 41.0708 12.2884C40.3954 12.2884 39.8629 12.0938 39.4862 11.6657C39.0966 11.2505 38.9017 10.6797 38.9017 9.96621C38.9017 9.22674 39.0966 8.64296 39.4992 8.21485C39.9019 7.78674 40.4344 7.5662 41.0838 7.5662C41.6293 7.5662 42.1878 7.74782 42.6944 8.11106L42.7593 8.16296V6.51538L42.7463 6.50241C42.5255 6.4116 42.2787 6.30781 41.941 6.24295ZM47.5131 6.19106C47.0974 6.19106 46.7078 6.32079 46.3701 6.59322C46.0843 6.82674 45.8895 7.16403 45.7207 7.5662H45.7077V6.30781H44.0192V13.4949H45.7077V9.8235C45.7077 9.2008 45.8376 8.68188 46.1233 8.30566C46.409 7.91647 46.7727 7.72187 47.2143 7.72187C47.3702 7.72187 47.5261 7.76079 47.7209 7.78674C47.9027 7.83863 48.0326 7.89052 48.1235 7.95539L48.1885 8.00728V6.32079L48.1495 6.30781C48.0326 6.22998 47.7988 6.19106 47.5131 6.19106ZM52.111 6.15214C50.929 6.15214 49.9809 6.50241 49.3185 7.18998C48.6431 7.87755 48.3183 8.82458 48.3183 10.0181C48.3183 11.1338 48.656 12.0419 49.3055 12.7035C49.9549 13.3522 50.8381 13.6895 51.9421 13.6895C53.0981 13.6895 54.0203 13.3392 54.6827 12.6386C55.3581 11.9381 55.6828 11.004 55.6828 9.84945C55.6828 8.70782 55.3711 7.79971 54.7346 7.13809C54.1242 6.47646 53.228 6.15214 52.111 6.15214ZM53.4618 11.6786C53.15 12.0808 52.6565 12.2754 52.046 12.2754C51.4356 12.2754 50.942 12.0808 50.5913 11.6527C50.2406 11.2505 50.0718 10.6667 50.0718 9.92729C50.0718 9.16188 50.2536 8.57809 50.5913 8.16296C50.942 7.74782 51.4226 7.54025 52.033 7.54025C52.6305 7.54025 53.0981 7.73485 53.4358 8.13701C53.7735 8.53917 53.9553 9.12296 53.9553 9.88837C53.9293 10.6667 53.7865 11.2765 53.4618 11.6786ZM59.4494 9.29161C58.9169 9.07107 58.5792 8.90242 58.4233 8.75972C58.2934 8.62999 58.2285 8.44836 58.2285 8.21485C58.2285 8.02025 58.3064 7.82566 58.5013 7.69593C58.6961 7.5662 58.9169 7.50133 59.2416 7.50133C59.5274 7.50133 59.8261 7.55322 60.1118 7.63106C60.3976 7.7089 60.6573 7.82566 60.8652 7.98133L60.9301 8.03323V6.45052L60.8911 6.43754C60.6963 6.35971 60.4365 6.28187 60.1248 6.217C59.8131 6.16511 59.5274 6.13917 59.2936 6.13917C58.4883 6.13917 57.8259 6.33376 57.3063 6.76187C56.7868 7.16403 56.54 7.7089 56.54 8.34458C56.54 8.68188 56.592 8.98026 56.7089 9.22674C56.8258 9.47323 56.9946 9.70675 57.2284 9.90134C57.4622 10.083 57.7999 10.2905 58.2675 10.4851C58.6571 10.6538 58.9559 10.7835 59.1377 10.8873C59.3195 10.9911 59.4364 11.1078 59.5273 11.1986C59.5923 11.3024 59.6313 11.4322 59.6313 11.6008C59.6313 12.0808 59.2676 12.3143 58.5272 12.3143C58.2415 12.3143 57.9428 12.2624 57.5921 12.1457C57.2414 12.0289 56.9167 11.8603 56.6439 11.6657L56.579 11.6138V13.2614L56.6179 13.2743C56.8647 13.3911 57.1635 13.4689 57.5271 13.5597C57.8908 13.6246 58.2155 13.6765 58.5013 13.6765C59.3715 13.6765 60.0859 13.4819 60.5924 13.0538C61.1119 12.6386 61.3847 12.1068 61.3847 11.4192C61.3847 10.9392 61.2548 10.5111 60.9691 10.1867C60.5924 9.8754 60.1248 9.55107 59.4494 9.29161ZM65.8397 6.15214C64.6578 6.15214 63.7096 6.50241 63.0472 7.18998C62.3848 7.87755 62.0471 8.82458 62.0471 10.0181C62.0471 11.1338 62.3848 12.0419 63.0342 12.7035C63.6836 13.3522 64.5669 13.6895 65.6709 13.6895C66.8268 13.6895 67.749 13.3392 68.4114 12.6386C69.0868 11.9381 69.4115 11.004 69.4115 9.84945C69.4115 8.70782 69.0998 7.79971 68.4634 7.13809C67.8529 6.47646 66.9567 6.15214 65.8397 6.15214ZM67.1775 11.6786C66.8658 12.0808 66.3722 12.2754 65.7618 12.2754C65.1383 12.2754 64.6578 12.0808 64.3071 11.6527C63.9564 11.2505 63.7876 10.6667 63.7876 9.92729C63.7876 9.16188 63.9694 8.57809 64.3071 8.16296C64.6578 7.74782 65.1383 7.54025 65.7488 7.54025C66.3333 7.54025 66.8139 7.73485 67.1516 8.13701C67.4893 8.53917 67.6711 9.12296 67.6711 9.88837C67.6711 10.6667 67.5022 11.2765 67.1775 11.6786ZM78.4385 7.69593V6.30781H76.737V4.18024L76.6851 4.19321L75.0745 4.67321L75.0355 4.68619V6.30781H72.4898V5.3997C72.4898 4.98457 72.5937 4.66024 72.7755 4.45267C72.9574 4.2451 73.2301 4.14132 73.5678 4.14132C73.8016 4.14132 74.0484 4.19321 74.3212 4.30997L74.3861 4.34889V2.88294L74.3471 2.86996C74.1133 2.79213 73.8016 2.74023 73.399 2.74023C72.8924 2.74023 72.4508 2.85699 72.0482 3.05159C71.6455 3.27213 71.3468 3.57051 71.126 3.97267C70.9052 4.36186 70.7883 4.80294 70.7883 5.30889V6.30781H69.6064V7.68295H70.7883V13.4949H72.4898V7.69593H75.0355V11.3932C75.0355 12.9111 75.7499 13.6765 77.1786 13.6765C77.4124 13.6765 77.6592 13.6376 77.893 13.5987C78.1398 13.5468 78.3216 13.4819 78.4255 13.43L78.4385 13.417V12.0289L78.3736 12.0808C78.2696 12.1457 78.1787 12.1976 78.0229 12.2365C77.893 12.2754 77.7761 12.2884 77.6852 12.2884C77.3475 12.2884 77.1137 12.2105 76.9448 12.0159C76.789 11.8343 76.711 11.5359 76.711 11.0949V7.69593H78.4385Z" fill="#636262"/>
<path d="M0 0.132812H7.96151V8.08527H0V0.132812Z" fill="#636262"/>
<path d="M8.79395 0.132812H16.7555V8.08527H8.79395V0.132812Z" fill="#636262"/>
<path d="M0 8.91602H7.96151V16.8685H0V8.91602Z" fill="#636262"/>
<path d="M8.79395 8.91602H16.7555V16.8685H8.79395V8.91602Z" fill="#636262"/>
</g>
<defs>
<clipPath id="clip0_3799_21120">
<rect width="78.45" height="16.7352" fill="white" transform="translate(0 0.132812)"/>
</clipPath>
</defs>
</svg>
