<svg width="64" height="17" viewBox="0 0 64 17" fill="none" xmlns="http://www.w3.org/2000/svg">
<g clip-path="url(#clip0_3799_21126)">
<path d="M23.8894 3.55566H20.421C20.3062 3.55559 20.1951 3.59653 20.1078 3.6711C20.0205 3.74567 19.9627 3.84896 19.9448 3.96238L18.542 12.8559C18.5356 12.8971 18.5382 12.9393 18.5496 12.9795C18.561 13.0197 18.581 13.0569 18.6082 13.0886C18.6354 13.1203 18.6691 13.1458 18.7071 13.1632C18.745 13.1806 18.7863 13.1896 18.8281 13.1896H20.4839C20.5988 13.1896 20.71 13.1486 20.7973 13.0739C20.8846 12.9993 20.9424 12.8958 20.9601 12.7823L21.3385 10.3836C21.3562 10.2702 21.4139 10.1669 21.5011 10.0922C21.5884 10.0175 21.6994 9.97647 21.8142 9.9764H22.9122C25.1969 9.9764 26.5155 8.87086 26.8598 6.68007C27.015 5.7216 26.8664 4.96852 26.4176 4.44111C25.9246 3.86197 25.0503 3.55566 23.8894 3.55566ZM24.2896 6.80381C24.0999 8.0483 23.149 8.0483 22.2295 8.0483H21.7062L22.0733 5.72414C22.0841 5.65614 22.1187 5.59422 22.1711 5.5495C22.2234 5.50478 22.29 5.48021 22.3589 5.48021H22.5987C23.2251 5.48021 23.8159 5.48021 24.1212 5.83723C24.3033 6.05022 24.3591 6.36667 24.2896 6.80381ZM34.2571 6.76375H32.5962C32.5274 6.76375 32.4608 6.78832 32.4085 6.83304C32.3561 6.87775 32.3214 6.93968 32.3107 7.00768L32.2372 7.47221L32.121 7.30384C31.7615 6.78201 30.9596 6.60756 30.1594 6.60756C28.324 6.60756 26.7564 7.99759 26.4511 9.94749C26.2923 10.9202 26.518 11.8502 27.0698 12.4989C27.5759 13.0952 28.3001 13.3437 29.1618 13.3437C30.6406 13.3437 31.4607 12.3929 31.4607 12.3929L31.3867 12.8543C31.3801 12.8956 31.3825 12.9378 31.3938 12.978C31.4051 13.0183 31.4249 13.0556 31.452 13.0874C31.4791 13.1192 31.5128 13.1448 31.5507 13.1623C31.5886 13.1799 31.6299 13.189 31.6717 13.1891H33.1678C33.2827 13.1891 33.3938 13.1481 33.4811 13.0734C33.5685 12.9988 33.6262 12.8953 33.644 12.7818L34.5417 7.09744C34.5483 7.05627 34.5459 7.01416 34.5346 6.97401C34.5233 6.93387 34.5035 6.89664 34.4764 6.86492C34.4494 6.83319 34.4158 6.80771 34.3779 6.79024C34.34 6.77278 34.2988 6.76374 34.2571 6.76375ZM31.942 9.99618C31.7817 10.945 31.0286 11.582 30.0681 11.582C29.5858 11.582 29.2003 11.4273 28.9528 11.1342C28.7074 10.8431 28.6141 10.4288 28.6922 9.96727C28.8418 9.02655 29.6076 8.36881 30.5534 8.36881C31.0251 8.36881 31.4085 8.52551 31.661 8.82117C31.9141 9.11986 32.0145 9.53672 31.942 9.99618ZM43.1029 6.76375H41.4338C41.3551 6.76387 41.2776 6.7832 41.2081 6.82005C41.1385 6.8569 41.079 6.91017 41.0347 6.97522L38.7328 10.3659L37.757 7.10758C37.727 7.00821 37.6659 6.92111 37.5826 6.85919C37.4993 6.79726 37.3983 6.7638 37.2945 6.76375H35.6543C35.6083 6.76363 35.5629 6.7745 35.5219 6.79547C35.4809 6.81644 35.4455 6.84689 35.4187 6.8843C35.3919 6.9217 35.3744 6.96498 35.3676 7.01052C35.3609 7.05606 35.3651 7.10255 35.38 7.14612L37.2184 12.5409L35.49 14.9807C35.4593 15.024 35.4411 15.0749 35.4374 15.1278C35.4336 15.1807 35.4446 15.2336 35.4689 15.2808C35.4933 15.3279 35.5301 15.3674 35.5754 15.395C35.6208 15.4226 35.6728 15.4372 35.7259 15.4371H37.3929C37.4707 15.4373 37.5474 15.4185 37.6164 15.3824C37.6854 15.3464 37.7446 15.2942 37.7889 15.2302L43.3402 7.21763C43.3703 7.17428 43.388 7.12352 43.3913 7.07086C43.3946 7.01819 43.3834 6.96563 43.3589 6.91887C43.3345 6.87211 43.2977 6.83293 43.2525 6.80559C43.2074 6.77824 43.1557 6.76377 43.1029 6.76375Z" fill="#636262"/>
<path d="M48.6283 3.55519H45.1594C45.0446 3.55524 44.9337 3.59623 44.8465 3.67079C44.7593 3.74535 44.7016 3.84858 44.6837 3.96191L43.2809 12.8554C43.2744 12.8966 43.2769 12.9387 43.2882 12.9789C43.2995 13.019 43.3194 13.0562 43.3465 13.0879C43.3736 13.1197 43.4072 13.1451 43.4451 13.1626C43.483 13.18 43.5242 13.1891 43.5659 13.1891H45.346C45.4263 13.189 45.504 13.1602 45.5649 13.108C45.6259 13.0557 45.6663 12.9834 45.6787 12.9041L46.0768 10.3832C46.0946 10.2697 46.1523 10.1664 46.2395 10.0917C46.3267 10.0171 46.4377 9.976 46.5525 9.97593H47.65C49.9352 9.97593 51.2533 8.87039 51.5982 6.6796C51.7539 5.72113 51.6043 4.96805 51.1554 4.44064C50.663 3.8615 49.7892 3.55519 48.6283 3.55519ZM49.0284 6.80334C48.8393 8.04783 47.8884 8.04783 46.9684 8.04783H46.4455L46.8132 5.72367C46.8237 5.65567 46.8583 5.59369 46.9106 5.54895C46.9628 5.50421 47.0294 5.47966 47.0982 5.47974H47.3381C47.9639 5.47974 48.5553 5.47974 48.8606 5.83676C49.0426 6.04975 49.0979 6.3662 49.0284 6.80334ZM58.9955 6.76328H57.3356C57.2667 6.76309 57.2001 6.7876 57.1478 6.83237C57.0955 6.87713 57.061 6.93917 57.0506 7.00721L56.977 7.47174L56.8604 7.30337C56.5008 6.78154 55.6995 6.60708 54.8992 6.60708C53.0638 6.60708 51.4967 7.99712 51.1914 9.94702C51.0332 10.9197 51.2579 11.8498 51.8097 12.4984C52.3168 13.0948 53.04 13.3433 53.9017 13.3433C55.3805 13.3433 56.2006 12.3924 56.2006 12.3924L56.1265 12.8539C56.1199 12.8952 56.1224 12.9375 56.1337 12.9778C56.1451 13.0181 56.165 13.0555 56.1922 13.0873C56.2194 13.1191 56.2532 13.1447 56.2913 13.1622C56.3293 13.1797 56.3707 13.1887 56.4126 13.1886H57.9082C58.023 13.1885 58.134 13.1474 58.2212 13.0728C58.3084 12.9981 58.3661 12.8948 58.3839 12.7814L59.282 7.09697C59.2884 7.05567 59.2858 7.01348 59.2743 6.97331C59.2628 6.93313 59.2428 6.89591 59.2155 6.86421C59.1883 6.8325 59.1545 6.80707 59.1166 6.78965C59.0786 6.77223 59.0373 6.76323 58.9955 6.76328ZM56.6803 9.99571C56.5211 10.9445 55.767 11.5815 54.8064 11.5815C54.3251 11.5815 53.9387 11.4268 53.6912 11.1337C53.4457 10.8426 53.3534 10.4283 53.4305 9.9668C53.5811 9.02608 54.3459 8.36834 55.2918 8.36834C55.7634 8.36834 56.1468 8.52504 56.3994 8.82069C56.6535 9.11939 56.7539 9.53625 56.6803 9.99571ZM60.9536 3.79912L59.53 12.8554C59.5235 12.8966 59.526 12.9387 59.5373 12.9789C59.5486 13.019 59.5685 13.0562 59.5956 13.0879C59.6227 13.1197 59.6564 13.1451 59.6942 13.1626C59.7321 13.18 59.7733 13.1891 59.8151 13.1891H61.2462C61.4841 13.1891 61.6859 13.0167 61.7224 12.7819L63.1262 3.88888C63.1328 3.84766 63.1303 3.80552 63.119 3.76535C63.1076 3.72518 63.0877 3.68794 63.0607 3.65618C63.0336 3.62443 62.9999 3.59891 62.9621 3.58139C62.9242 3.56387 62.883 3.55476 62.8412 3.55469H61.2386C61.1698 3.55493 61.1033 3.57966 61.0511 3.62445C60.9989 3.66924 60.9643 3.73116 60.9536 3.79912Z" fill="#636262"/>
<path d="M4.13613 14.9178L4.40137 13.2332L3.81054 13.2195H0.989258L2.94991 0.788256C2.95574 0.750273 2.97504 0.715652 3.00427 0.690704C3.0335 0.665757 3.07072 0.652143 3.10915 0.652346H7.86624C9.44551 0.652346 10.5354 0.980964 11.1044 1.62958C11.3712 1.93386 11.5411 2.25182 11.6232 2.60174C11.7094 2.9689 11.711 3.40757 11.6268 3.94259L11.6207 3.98164V4.32445L11.8874 4.47558C12.0911 4.57875 12.2741 4.71831 12.4276 4.88736C12.6558 5.14752 12.8034 5.47817 12.8657 5.87018C12.9301 6.27334 12.9088 6.75308 12.8034 7.29622C12.6816 7.921 12.4849 8.46515 12.2191 8.9104C11.9846 9.30928 11.6694 9.65475 11.2936 9.92466C10.9406 10.1752 10.5212 10.3653 10.047 10.4871C9.58751 10.6067 9.06362 10.6671 8.48902 10.6671H8.1188C7.85406 10.6671 7.59694 10.7624 7.39509 10.9333C7.19353 11.1061 7.05982 11.3447 7.01777 11.6068L6.98988 11.7584L6.52127 14.7277L6.49997 14.8367C6.49439 14.8712 6.48475 14.8884 6.47055 14.9001C6.4568 14.9113 6.43964 14.9176 6.42187 14.9178H4.13613Z" fill="#636262"/>
<path d="M12.1393 4.02051C12.1251 4.11128 12.1088 4.20409 12.0906 4.29943C11.4632 7.52019 9.31697 8.63283 6.57581 8.63283H5.18013C4.8449 8.63283 4.56242 8.87625 4.51018 9.2069L3.79561 13.7386L3.59325 15.0231C3.58519 15.0741 3.58827 15.1262 3.60227 15.1758C3.61628 15.2255 3.64088 15.2715 3.67437 15.3107C3.70787 15.35 3.74948 15.3815 3.79632 15.4031C3.84316 15.4247 3.89413 15.4359 3.94572 15.4359H6.42113C6.71426 15.4359 6.96327 15.2229 7.00943 14.9339L7.03377 14.8081L7.49984 11.8505L7.52976 11.6883C7.57541 11.3982 7.82492 11.1852 8.11806 11.1852H8.48828C10.8866 11.1852 12.7641 10.2115 13.3128 7.39392C13.542 6.21688 13.4234 5.23406 12.8168 4.54285C12.6246 4.32903 12.395 4.15202 12.1393 4.02051Z" fill="#636262"/>
<path d="M11.4832 3.75952C11.2829 3.70158 11.0792 3.65636 10.8732 3.62412C10.4661 3.56156 10.0547 3.53155 9.64287 3.53436H5.91447C5.77258 3.53425 5.63533 3.58491 5.52753 3.67717C5.41973 3.76944 5.3485 3.89722 5.32671 4.03743L4.53356 9.06103L4.51074 9.20759C4.53545 9.04767 4.61658 8.90187 4.73946 8.79658C4.86233 8.69128 5.01884 8.63344 5.18066 8.63352H6.57627C9.31729 8.63352 11.4635 7.52038 12.0908 4.30012C12.1095 4.20478 12.1253 4.11198 12.1395 4.0212C11.9739 3.9344 11.8014 3.86162 11.6237 3.80365C11.5771 3.78819 11.5303 3.77348 11.4832 3.75952Z" fill="#636262"/>
<path d="M5.32737 4.03718C5.34898 3.89694 5.42018 3.76909 5.52803 3.67687C5.63589 3.58465 5.77325 3.53418 5.91516 3.53462H9.64373C10.0855 3.53462 10.4978 3.56353 10.8741 3.62438C11.1287 3.6644 11.3799 3.72426 11.6252 3.8034C11.8103 3.86476 11.9822 3.93728 12.1409 4.02096C12.3276 2.83073 12.1394 2.02034 11.4959 1.28653C10.7863 0.478673 9.50579 0.132812 7.86718 0.132812H3.1101C2.77538 0.132812 2.48986 0.376234 2.43813 0.707388L0.456686 13.2664C0.447457 13.3247 0.450968 13.3843 0.466979 13.4411C0.482989 13.498 0.511119 13.5506 0.549432 13.5956C0.587746 13.6405 0.635335 13.6765 0.688925 13.7013C0.742515 13.7261 0.800834 13.739 0.859871 13.739H3.79679L4.53418 9.06079L5.32737 4.03718Z" fill="#636262"/>
</g>
<defs>
<clipPath id="clip0_3799_21126">
<rect width="62.8868" height="16.7352" fill="white" transform="translate(0.450195 0.132812)"/>
</clipPath>
</defs>
</svg>
