<svg width="68" height="17" viewBox="0 0 68 17" fill="none" xmlns="http://www.w3.org/2000/svg">
<g clip-path="url(#clip0_3799_21156)">
<path d="M1.03125 3.78951C1.03125 3.78951 2.67924 10.5546 2.94225 11.6527C3.24923 12.9343 3.80236 13.406 5.39713 13.0879L6.42618 8.8936C6.68699 7.85176 6.86192 7.109 7.02957 6.04919H7.05907C7.17687 7.11942 7.3446 7.85488 7.55923 8.89725C7.55923 8.89725 7.97813 10.8013 8.19264 11.8014C8.40773 12.8012 9.0063 13.4313 10.5684 13.0883L13.0203 3.79022H11.0407L10.2036 7.81021C9.97853 8.98036 9.7743 9.89468 9.61685 10.9652H9.58892C9.44582 9.90536 9.26382 9.02725 9.035 7.88718L8.1634 3.79022H6.10077L5.16846 7.78396C4.90432 8.99753 4.65728 9.97752 4.50018 11.0117H4.47173C4.31085 10.0378 4.09657 8.80613 3.86453 7.63135C3.86453 7.63135 3.31062 4.77484 3.11627 3.79022L1.03144 3.79049L1.03125 3.78951ZM19.9032 3.78951V13.0876H21.788V11.1132V3.78906H19.9032V3.78951ZM46.4488 3.78951V10.6488C46.4488 11.5946 46.6265 12.2571 47.0066 12.6619C47.3386 13.016 47.8856 13.2452 48.541 13.2452C49.0983 13.2452 49.6466 13.1393 49.905 13.0429L49.8807 11.5674C49.6884 11.6148 49.4672 11.6527 49.1647 11.6527C48.5226 11.6527 48.3073 11.2407 48.3073 10.3916V7.76725H49.9488V5.98826H48.3073V3.78953H46.4487L46.4488 3.78951ZM15.6911 5.94499C14.5197 5.94499 13.5899 6.27447 13.0831 6.56789L13.454 7.84028C13.9178 7.54733 14.6564 7.30481 15.3557 7.30481C16.5136 7.30183 16.7029 7.96067 16.7029 8.38322V8.48315C14.1799 8.47935 12.5863 9.35394 12.5863 11.1367C12.5863 12.2251 13.3976 13.2452 14.8082 13.2452C15.6766 13.2452 16.4028 12.8982 16.8381 12.3423H16.8807C16.8807 12.3423 17.169 13.5496 18.7568 13.0879C18.6734 12.5855 18.6463 12.0497 18.6463 11.4045V8.92059C18.6463 7.33746 17.9716 5.94502 15.6911 5.94502L15.6911 5.94499ZM26.9657 5.94499C25.7863 5.94499 25.2563 6.54377 24.9349 7.05179H24.907V6.10267H23.1083V13.088H25.0031V8.99139C25.0031 8.79935 25.025 8.59626 25.0919 8.41959C25.2489 8.00714 25.632 7.52467 26.2435 7.52467C27.0081 7.52467 27.3659 8.17221 27.3659 9.10673V13.0879H29.2586V8.94176C29.2586 8.75843 29.2837 8.53761 29.3376 8.37552C29.4932 7.90635 29.9062 7.5246 30.4746 7.5246C31.2497 7.5246 31.6217 8.16088 31.6217 9.26052V13.0879H33.5159V8.97381C33.5159 6.80409 32.4161 5.94503 31.1747 5.94503C30.6249 5.94503 30.1909 6.08313 29.7986 6.32443C29.4688 6.52716 29.1736 6.81519 28.9155 7.19446H28.8876C28.5874 6.44165 27.883 5.94503 26.9654 5.94503L26.9657 5.94499ZM37.3708 5.94499C36.1997 5.94499 35.2701 6.27447 34.7628 6.56789L35.1342 7.84028C35.5976 7.54733 36.3367 7.30481 37.0356 7.30481C38.1927 7.30183 38.3824 7.96067 38.3824 8.38322V8.48315C35.8598 8.47935 34.266 9.35394 34.266 11.1367C34.266 12.2251 35.0777 13.2452 36.4891 13.2452C37.3568 13.2452 38.0832 12.8982 38.5177 12.3423H38.5605C38.5605 12.3423 38.8487 13.5496 40.4368 13.0879C40.3533 12.5855 40.3265 12.0497 40.3265 11.4045V8.92059C40.3265 7.33746 39.6515 5.94502 37.3708 5.94502L37.3708 5.94499ZM45.2395 5.94499C44.514 5.94499 43.6885 6.41419 43.3419 7.42001H43.289V6.10258H41.5833V13.0879H43.5278V9.51098C43.5278 9.31801 43.5395 9.14977 43.57 8.99549C43.7138 8.24621 44.2858 7.76723 45.1069 7.76723C45.3323 7.76723 45.4936 7.79168 45.6681 7.81693V5.9882C45.5218 5.95858 45.4217 5.94493 45.2396 5.94493L45.2395 5.94499ZM16.7637 9.72098V10.5924C16.7637 10.7213 16.7525 10.8543 16.7169 10.9706C16.571 11.4546 16.0705 11.8636 15.4449 11.8636C14.9233 11.8636 14.5089 11.567 14.5089 10.9396C14.5089 9.98002 15.5634 9.71475 16.7638 9.72098H16.7637ZM38.4435 9.72098V10.5924C38.4435 10.7213 38.432 10.8543 38.3966 10.9706C38.2508 11.4546 37.7505 11.8636 37.1248 11.8636C36.6031 11.8636 36.1887 11.567 36.1887 10.9396C36.1887 9.98002 37.2431 9.71475 38.4435 9.72098H38.4435Z" fill="#636262"/>
<path d="M60.1398 0.426758C59.5313 0.426758 59.0476 0.767167 59.0476 1.18158L59.4172 5.37347C59.458 5.62603 59.7668 5.82084 60.1401 5.82084C60.5142 5.82035 60.8219 5.62571 60.8636 5.37347L61.2349 1.18158C61.2349 0.767203 60.7499 0.426793 60.1405 0.426793L60.1398 0.426758ZM54.1177 3.7893C53.8018 3.79681 53.4429 4.0364 53.2147 4.43288C52.9094 4.96083 52.9635 5.55082 53.3207 5.75781L57.1288 7.53443C57.3667 7.62307 57.6898 7.45382 57.8769 7.13068C57.8769 7.13064 57.8769 7.13055 57.8769 7.13051C58.0649 6.80578 58.0503 6.44066 57.8524 6.2787L54.413 3.862C54.3237 3.81017 54.2232 3.78685 54.1179 3.78935L54.1177 3.7893ZM66.1618 3.7893C66.0565 3.78679 65.9562 3.81012 65.8671 3.86195L62.4272 6.27865C62.2305 6.44059 62.2159 6.80573 62.4029 7.13045L62.4031 7.13063C62.5909 7.45377 62.9129 7.62301 63.1509 7.53437L66.9607 5.75784C67.3193 5.55086 67.3707 4.9609 67.0675 4.43292C66.8382 4.03643 66.4788 3.79684 66.1629 3.78933L66.1618 3.7893ZM57.2711 9.31991C57.2218 9.31924 57.174 9.32687 57.1293 9.34372L53.3212 11.1182C52.964 11.3261 52.9099 11.9163 53.2152 12.4448C53.5195 12.9717 54.056 13.2222 54.4133 13.0156L57.853 10.6008C58.0509 10.4368 58.0655 10.0718 57.8774 9.74739L57.879 9.7481C57.727 9.48386 57.4846 9.32276 57.2711 9.31985L57.2711 9.31991ZM63.0101 9.31991C62.7969 9.32282 62.555 9.48391 62.4026 9.74816L62.404 9.74744C62.2168 10.0719 62.2313 10.4369 62.4281 10.6008L65.8679 13.0156C66.2245 13.2223 66.7615 12.9718 67.0673 12.4449C67.3705 11.9163 67.3191 11.3261 66.9604 11.1183L63.1517 9.34377C63.107 9.32692 63.0594 9.31929 63.0102 9.31996L63.0101 9.31991ZM60.1392 11.0572C59.7665 11.0576 59.4584 11.2516 59.4177 11.5035L59.0481 15.6952C59.0481 16.1103 59.5318 16.4501 60.1403 16.4501C60.7499 16.4501 61.2344 16.1103 61.2344 15.6952L60.864 11.5035C60.8224 11.2516 60.5147 11.0577 60.1406 11.0572H60.1392H60.1392Z" fill="#636262"/>
</g>
<defs>
<clipPath id="clip0_3799_21156">
<rect width="66.944" height="16.7352" fill="white" transform="translate(0.700195 0.132812)"/>
</clipPath>
</defs>
</svg>
